# Blender v3.1.2 OBJ File: 'Low poly bedroom.blend'
# www.blender.org
mtllib Carpet.mtl
o Carpet_Circle.001
v 0.000000 0.031095 -1.958407
v 0.000000 0.000000 -1.927162
v -0.375971 0.000000 -1.890132
v -0.382066 0.031095 -1.920777
v -0.737493 0.000000 -1.780466
v -0.749450 0.031095 -1.809332
v -1.070674 0.000000 -1.602377
v -1.088033 0.031095 -1.628356
v -1.362710 0.000000 -1.362710
v -1.384803 0.031095 -1.384803
v -1.602377 0.000000 -1.070674
v -1.628356 0.031095 -1.088033
v -1.780466 0.000000 -0.737493
v -1.809332 0.031095 -0.749450
v -1.890132 0.000000 -0.375971
v -1.920777 0.031095 -0.382066
v -1.927162 0.000000 0.000000
v -1.958407 0.031095 0.000000
v -1.890132 0.000000 0.375971
v -1.920777 0.031095 0.382066
v -1.780466 0.000000 0.737493
v -1.809333 0.031095 0.749450
v -1.602377 0.000000 1.070674
v -1.628356 0.031095 1.088033
v -1.362710 0.000000 1.362710
v -1.384803 0.031095 1.384803
v -1.070674 0.000000 1.602377
v -1.088033 0.031095 1.628356
v -0.737493 0.000000 1.780466
v -0.749450 0.031095 1.809332
v -0.375971 0.000000 1.890133
v -0.382066 0.031095 1.920777
v 0.000000 0.000000 1.927162
v 0.000000 0.031095 1.958407
v 0.375971 0.000000 1.890133
v 0.382066 0.031095 1.920777
v 0.737493 0.000000 1.780466
v 0.749450 0.031095 1.809332
v 1.070674 0.000000 1.602377
v 1.088033 0.031095 1.628356
v 1.362710 0.000000 1.362710
v 1.384803 0.031095 1.384803
v 1.602377 0.000000 1.070674
v 1.628356 0.031095 1.088033
v 1.780466 0.000000 0.737493
v 1.809332 0.031095 0.749450
v 1.890132 0.000000 0.375971
v 1.920777 0.031095 0.382066
v 1.927162 0.000000 -0.000000
v 1.958407 0.031095 -0.000000
v 1.890132 0.000000 -0.375971
v 1.920777 0.031095 -0.382067
v 1.780466 0.000000 -0.737494
v 1.809332 0.031095 -0.749450
v 1.602377 0.000000 -1.070674
v 1.628356 0.031095 -1.088032
v 1.362710 0.000000 -1.362710
v 1.384803 0.031095 -1.384803
v 1.070674 0.000000 -1.602377
v 1.088033 0.031095 -1.628356
v 0.737493 0.000000 -1.780466
v 0.749450 0.031095 -1.809333
v 0.375971 0.000000 -1.890133
v 0.382066 0.031095 -1.920777
v -0.382066 0.031095 -1.920777
v -0.375971 0.062189 -1.890132
v 0.000000 0.062189 -1.927162
v 0.000000 0.031095 -1.958407
v -0.749450 0.031095 -1.809332
v -0.737493 0.062189 -1.780466
v -1.088033 0.031095 -1.628356
v -1.070674 0.062189 -1.602377
v -1.384803 0.031095 -1.384803
v -1.362710 0.062189 -1.362710
v -1.628356 0.031095 -1.088033
v -1.602377 0.062189 -1.070674
v -1.809332 0.031095 -0.749450
v -1.780466 0.062189 -0.737493
v -1.920777 0.031095 -0.382066
v -1.890132 0.062189 -0.375971
v -1.958407 0.031095 0.000000
v -1.927162 0.062189 0.000000
v -1.920777 0.031095 0.382066
v -1.890132 0.062189 0.375971
v -1.809333 0.031095 0.749450
v -1.780466 0.062189 0.737493
v -1.628356 0.031095 1.088033
v -1.602377 0.062189 1.070674
v -1.384803 0.031095 1.384803
v -1.362710 0.062189 1.362710
v -1.088033 0.031095 1.628356
v -1.070674 0.062189 1.602377
v -0.749450 0.031095 1.809332
v -0.737493 0.062189 1.780466
v -0.382066 0.031095 1.920777
v -0.375971 0.062189 1.890133
v 0.000000 0.031095 1.958407
v 0.000000 0.062189 1.927162
v 0.382066 0.031095 1.920777
v 0.375971 0.062189 1.890133
v 0.749450 0.031095 1.809332
v 0.737493 0.062189 1.780466
v 1.088033 0.031095 1.628356
v 1.070674 0.062189 1.602377
v 1.384803 0.031095 1.384803
v 1.362710 0.062189 1.362710
v 1.628356 0.031095 1.088033
v 1.602377 0.062189 1.070674
v 1.809332 0.031095 0.749450
v 1.780466 0.062189 0.737493
v 1.920777 0.031095 0.382066
v 1.890132 0.062189 0.375971
v 1.958407 0.031095 -0.000000
v 1.927162 0.062189 -0.000000
v 1.920777 0.031095 -0.382067
v 1.890132 0.062189 -0.375971
v 1.809332 0.031095 -0.749450
v 1.780466 0.062189 -0.737494
v 1.628356 0.031095 -1.088032
v 1.602377 0.062189 -1.070674
v 1.384803 0.031095 -1.384803
v 1.362710 0.062189 -1.362710
v 1.088033 0.031095 -1.628356
v 1.070674 0.062189 -1.602377
v 0.749450 0.031095 -1.809333
v 0.737493 0.062189 -1.780466
v 0.382066 0.031095 -1.920777
v 0.375971 0.062189 -1.890133
vt 0.000000 0.000000
vt 0.000000 0.000000
vt 0.000000 0.000000
vt 0.000000 0.000000
vt 0.000000 0.000000
vt 0.000000 0.000000
vt 0.000000 0.000000
vt 0.000000 0.000000
vt 0.000000 0.000000
vt 0.000000 0.000000
vt 0.000000 0.000000
vt 0.000000 0.000000
vt 0.000000 0.000000
vt 0.000000 0.000000
vt 0.000000 0.000000
vt 0.000000 0.000000
vt 0.000000 0.000000
vt 0.000000 0.000000
vt 0.000000 0.000000
vt 0.000000 0.000000
vt 0.000000 0.000000
vt 0.000000 0.000000
vt 0.000000 0.000000
vt 0.000000 0.000000
vt 0.000000 0.000000
vt 0.000000 0.000000
vt 0.000000 0.000000
vt 0.000000 0.000000
vt 0.000000 0.000000
vt 0.000000 0.000000
vt 0.000000 0.000000
vt 0.000000 0.000000
vt 0.000000 0.000000
vt 0.000000 0.000000
vt 0.000000 0.000000
vt 0.000000 0.000000
vt 0.000000 0.000000
vt 0.000000 0.000000
vt 0.000000 0.000000
vt 0.000000 0.000000
vt 0.000000 0.000000
vt 0.000000 0.000000
vt 0.000000 0.000000
vt 0.000000 0.000000
vt 0.000000 0.000000
vt 0.000000 0.000000
vt 0.000000 0.000000
vt 0.000000 0.000000
vt 0.000000 0.000000
vt 0.000000 0.000000
vt 0.000000 0.000000
vt 0.000000 0.000000
vt 0.000000 0.000000
vt 0.000000 0.000000
vt 0.000000 0.000000
vt 0.000000 0.000000
vt 0.000000 0.000000
vt 0.000000 0.000000
vt 0.000000 0.000000
vt 0.000000 0.000000
vt 0.000000 0.000000
vt 0.000000 0.000000
vt 0.000000 0.000000
vt 0.000000 0.000000
vt 0.000000 0.000000
vt 0.000000 0.000000
vt 0.000000 0.000000
vt 0.000000 0.000000
vt 0.000000 0.000000
vt 0.000000 0.000000
vt 0.000000 0.000000
vt 0.000000 0.000000
vt 0.000000 0.000000
vt 0.000000 0.000000
vt 0.000000 0.000000
vt 0.000000 0.000000
vt 0.000000 0.000000
vt 0.000000 0.000000
vt 0.000000 0.000000
vt 0.000000 0.000000
vt 0.000000 0.000000
vt 0.000000 0.000000
vt 0.000000 0.000000
vt 0.000000 0.000000
vt 0.000000 0.000000
vt 0.000000 0.000000
vt 0.000000 0.000000
vt 0.000000 0.000000
vt 0.000000 0.000000
vt 0.000000 0.000000
vt 0.000000 0.000000
vt 0.000000 0.000000
vt 0.000000 0.000000
vt 0.000000 0.000000
vt 0.000000 0.000000
vt 0.000000 0.000000
vt 0.000000 0.000000
vt 0.000000 0.000000
vt 0.000000 0.000000
vt 0.000000 0.000000
vt 0.000000 0.000000
vt 0.000000 0.000000
vt 0.000000 0.000000
vt 0.000000 0.000000
vt 0.000000 0.000000
vt 0.000000 0.000000
vt 0.000000 0.000000
vt 0.000000 0.000000
vt 0.000000 0.000000
vt 0.000000 0.000000
vt 0.000000 0.000000
vt 0.000000 0.000000
vt 0.000000 0.000000
vt 0.000000 0.000000
vt 0.000000 0.000000
vt 0.000000 0.000000
vt 0.000000 0.000000
vt 0.000000 0.000000
vt 0.000000 0.000000
vt 0.000000 0.000000
vt 0.000000 0.000000
vt 0.000000 0.000000
vt 0.000000 0.000000
vt 0.000000 0.000000
vt 0.000000 0.000000
vt 0.000000 0.000000
vt 0.000000 0.000000
vt 0.000000 0.000000
vn -0.0750 0.0000 0.9972
vn -0.9967 0.0000 -0.0815
vn 0.9381 0.0000 -0.3463
vn -0.9967 0.0000 0.0815
vn 0.7648 0.0000 -0.6443
vn -0.9467 0.0000 0.3221
vn 0.6978 0.0000 -0.7163
vn -0.9381 0.0000 0.3463
vn 0.3403 0.0000 -0.9403
vn -0.7648 0.0000 0.6443
vn 0.4072 0.0000 -0.9134
vn 0.0000 -1.0000 0.0000
vn -0.6978 0.0000 0.7163
vn 0.0750 0.0000 -0.9972
vn 0.3403 0.0000 0.9403
vn -0.3403 0.0000 0.9403
vn -0.0750 0.0000 -0.9972
vn 0.6978 0.0000 0.7163
vn -0.4072 0.0000 0.9134
vn -0.4072 0.0000 -0.9134
vn 0.7648 0.0000 0.6443
vn 0.0000 1.0000 0.0000
vn -0.3403 0.0000 -0.9403
vn 0.9381 0.0000 0.3463
vn 0.2176 0.0000 0.9760
vn -0.6978 0.0000 -0.7163
vn 0.9858 0.0000 0.1677
vn -0.7648 0.0000 -0.6443
vn 0.9967 0.0000 0.0815
vn -0.9381 0.0000 -0.3463
vn 0.9967 0.0000 -0.0815
vn -0.9858 0.0000 -0.1677
vn 0.9858 0.0000 -0.1677
vn -0.0693 -0.7071 -0.7037
vn -0.2053 -0.7071 -0.6767
vn -0.3333 -0.7071 -0.6236
vn -0.4486 -0.7071 -0.5466
vn -0.5466 -0.7071 -0.4486
vn -0.6236 -0.7071 -0.3333
vn -0.6767 -0.7071 -0.2053
vn -0.7037 -0.7071 -0.0693
vn -0.7037 -0.7071 0.0693
vn -0.6767 -0.7071 0.2053
vn -0.6236 -0.7071 0.3333
vn -0.5466 -0.7071 0.4486
vn -0.4486 -0.7071 0.5466
vn -0.3333 -0.7071 0.6236
vn -0.2053 -0.7071 0.6767
vn -0.0693 -0.7071 0.7037
vn 0.0693 -0.7071 0.7037
vn 0.2053 -0.7071 0.6767
vn 0.3333 -0.7071 0.6236
vn 0.4486 -0.7071 0.5466
vn 0.5466 -0.7071 0.4486
vn 0.6236 -0.7071 0.3333
vn 0.6767 -0.7071 0.2053
vn 0.7037 -0.7071 0.0693
vn 0.7037 -0.7071 -0.0693
vn 0.6767 -0.7071 -0.2053
vn 0.6236 -0.7071 -0.3333
vn 0.5466 -0.7071 -0.4486
vn 0.4486 -0.7071 -0.5466
vn 0.3333 -0.7071 -0.6236
vn 0.2053 -0.7071 -0.6767
vn 0.0693 -0.7071 -0.7037
vn -0.0693 0.7071 -0.7037
vn -0.2053 0.7071 -0.6767
vn -0.3333 0.7071 -0.6236
vn -0.4486 0.7071 -0.5466
vn -0.5466 0.7071 -0.4486
vn -0.6236 0.7071 -0.3333
vn -0.6767 0.7071 -0.2053
vn -0.7037 0.7071 -0.0693
vn -0.7037 0.7071 0.0693
vn -0.6767 0.7071 0.2053
vn -0.6236 0.7071 0.3333
vn -0.5466 0.7071 0.4486
vn -0.4486 0.7071 0.5466
vn -0.3333 0.7071 0.6236
vn -0.2053 0.7071 0.6767
vn -0.0693 0.7071 0.7037
vn 0.0693 0.7071 0.7037
vn 0.2053 0.7071 0.6767
vn 0.3333 0.7071 0.6236
vn 0.4486 0.7071 0.5466
vn 0.5466 0.7071 0.4486
vn 0.6236 0.7071 0.3333
vn 0.6767 0.7071 0.2053
vn 0.7037 0.7071 0.0693
vn 0.7037 0.7071 -0.0693
vn 0.6767 0.7071 -0.2053
vn 0.6236 0.7071 -0.3333
vn 0.5466 0.7071 -0.4486
vn 0.4486 0.7071 -0.5466
vn 0.3333 0.7071 -0.6236
vn 0.2053 0.7071 -0.6767
vn 0.0693 0.7071 -0.7037
vn 0.0750 0.0000 0.9972
usemtl White
s off
f 64/1/1 1/2/1 68/3/1 127/4/1
f 48/5/2 50/6/2 113/7/2 111/8/2
f 22/9/3 24/10/3 87/11/3 85/12/3
f 50/6/4 52/13/4 115/14/4 113/7/4
f 24/10/5 26/15/5 89/16/5 87/11/5
f 52/13/6 54/17/6 117/18/6 115/14/6
f 26/15/7 28/19/7 91/20/7 89/16/7
f 54/17/8 56/21/8 119/22/8 117/18/8
f 28/19/9 30/23/9 93/24/9 91/20/9
f 56/21/10 58/25/10 121/26/10 119/22/10
f 30/23/11 32/27/11 95/28/11 93/24/11
f 3/29/12 2/30/12 63/31/12 61/32/12 59/33/12 57/34/12 55/35/12 53/36/12 51/37/12 49/38/12 47/39/12 45/40/12 43/41/12 41/42/12 39/43/12 37/44/12 35/45/12 33/46/12 31/47/12 29/48/12 27/49/12 25/50/12 23/51/12 21/52/12 19/53/12 17/54/12 15/55/12 13/56/12 11/57/12 9/58/12 7/59/12 5/60/12
f 58/25/13 60/61/13 123/62/13 121/26/13
f 32/27/14 34/63/14 97/64/14 95/28/14
f 6/65/15 8/66/15 71/67/15 69/68/15
f 60/61/16 62/69/16 125/70/16 123/62/16
f 34/63/17 36/71/17 99/72/17 97/64/17
f 8/66/18 10/73/18 73/74/18 71/67/18
f 62/69/19 64/1/19 127/4/19 125/70/19
f 36/71/20 38/75/20 101/76/20 99/72/20
f 10/73/21 12/77/21 75/78/21 73/74/21
f 66/79/22 70/80/22 72/81/22 74/82/22 76/83/22 78/84/22 80/85/22 82/86/22 84/87/22 86/88/22 88/89/22 90/90/22 92/91/22 94/92/22 96/93/22 98/94/22 100/95/22 102/96/22 104/97/22 106/98/22 108/99/22 110/100/22 112/101/22 114/102/22 116/103/22 118/104/22 120/105/22 122/106/22 124/107/22 126/108/22 128/109/22 67/110/22
f 38/75/23 40/111/23 103/112/23 101/76/23
f 12/77/24 14/113/24 77/114/24 75/78/24
f 4/115/25 6/65/25 69/68/25 65/116/25
f 40/111/26 42/117/26 105/118/26 103/112/26
f 14/113/27 16/119/27 79/120/27 77/114/27
f 42/117/28 44/121/28 107/122/28 105/118/28
f 16/119/29 18/123/29 81/124/29 79/120/29
f 44/121/30 46/125/30 109/126/30 107/122/30
f 18/123/31 20/127/31 83/128/31 81/124/31
f 46/125/32 48/5/32 111/8/32 109/126/32
f 20/127/33 22/9/33 85/12/33 83/128/33
f 4/115/34 1/2/34 2/30/34 3/29/34
f 6/65/35 4/115/35 3/29/35 5/60/35
f 8/66/36 6/65/36 5/60/36 7/59/36
f 10/73/37 8/66/37 7/59/37 9/58/37
f 12/77/38 10/73/38 9/58/38 11/57/38
f 14/113/39 12/77/39 11/57/39 13/56/39
f 16/119/40 14/113/40 13/56/40 15/55/40
f 18/123/41 16/119/41 15/55/41 17/54/41
f 20/127/42 18/123/42 17/54/42 19/53/42
f 22/9/43 20/127/43 19/53/43 21/52/43
f 24/10/44 22/9/44 21/52/44 23/51/44
f 26/15/45 24/10/45 23/51/45 25/50/45
f 28/19/46 26/15/46 25/50/46 27/49/46
f 30/23/47 28/19/47 27/49/47 29/48/47
f 32/27/48 30/23/48 29/48/48 31/47/48
f 34/63/49 32/27/49 31/47/49 33/46/49
f 36/71/50 34/63/50 33/46/50 35/45/50
f 38/75/51 36/71/51 35/45/51 37/44/51
f 40/111/52 38/75/52 37/44/52 39/43/52
f 42/117/53 40/111/53 39/43/53 41/42/53
f 44/121/54 42/117/54 41/42/54 43/41/54
f 46/125/55 44/121/55 43/41/55 45/40/55
f 48/5/56 46/125/56 45/40/56 47/39/56
f 50/6/57 48/5/57 47/39/57 49/38/57
f 52/13/58 50/6/58 49/38/58 51/37/58
f 54/17/59 52/13/59 51/37/59 53/36/59
f 56/21/60 54/17/60 53/36/60 55/35/60
f 58/25/61 56/21/61 55/35/61 57/34/61
f 60/61/62 58/25/62 57/34/62 59/33/62
f 62/69/63 60/61/63 59/33/63 61/32/63
f 64/1/64 62/69/64 61/32/64 63/31/64
f 1/2/65 64/1/65 63/31/65 2/30/65
f 66/79/66 67/110/66 68/3/66 65/116/66
f 70/80/67 66/79/67 65/116/67 69/68/67
f 72/81/68 70/80/68 69/68/68 71/67/68
f 74/82/69 72/81/69 71/67/69 73/74/69
f 76/83/70 74/82/70 73/74/70 75/78/70
f 78/84/71 76/83/71 75/78/71 77/114/71
f 80/85/72 78/84/72 77/114/72 79/120/72
f 82/86/73 80/85/73 79/120/73 81/124/73
f 84/87/74 82/86/74 81/124/74 83/128/74
f 86/88/75 84/87/75 83/128/75 85/12/75
f 88/89/76 86/88/76 85/12/76 87/11/76
f 90/90/77 88/89/77 87/11/77 89/16/77
f 92/91/78 90/90/78 89/16/78 91/20/78
f 94/92/79 92/91/79 91/20/79 93/24/79
f 96/93/80 94/92/80 93/24/80 95/28/80
f 98/94/81 96/93/81 95/28/81 97/64/81
f 100/95/82 98/94/82 97/64/82 99/72/82
f 102/96/83 100/95/83 99/72/83 101/76/83
f 104/97/84 102/96/84 101/76/84 103/112/84
f 106/98/85 104/97/85 103/112/85 105/118/85
f 108/99/86 106/98/86 105/118/86 107/122/86
f 110/100/87 108/99/87 107/122/87 109/126/87
f 112/101/88 110/100/88 109/126/88 111/8/88
f 114/102/89 112/101/89 111/8/89 113/7/89
f 116/103/90 114/102/90 113/7/90 115/14/90
f 118/104/91 116/103/91 115/14/91 117/18/91
f 120/105/92 118/104/92 117/18/92 119/22/92
f 122/106/93 120/105/93 119/22/93 121/26/93
f 124/107/94 122/106/94 121/26/94 123/62/94
f 126/108/95 124/107/95 123/62/95 125/70/95
f 128/109/96 126/108/96 125/70/96 127/4/96
f 67/110/97 128/109/97 127/4/97 68/3/97
f 1/2/98 4/115/98 65/116/98 68/3/98
